<?xml version="1.0" encoding="utf-8"?>
<!-- Generator: Adobe Illustrator 19.1.0, SVG Export Plug-In . SVG Version: 6.00 Build 0)  -->
<svg version="1.1" id="Layer_1" xmlns="http://www.w3.org/2000/svg" xmlns:xlink="http://www.w3.org/1999/xlink" x="0px" y="0px"
	 width="512px" height="512px" viewBox="0 0 512 512" enable-background="new 0 0 512 512" xml:space="preserve">
<path fill="#444444" d="M512,184.6v226.7c0,12.6-4.5,23.3-13.4,32.2S478.9,457,466.3,457H46c-12.6,0-23.3-4.5-32.2-13.4
	S0.3,423.9,0.3,411.3V184.6c8.4,9.3,18,17.6,28.9,24.9c68.9,46.9,116.3,79.6,142,98.5c10.9,8,19.7,14.2,26.4,18.7
	c6.8,4.5,15.8,9,27,13.7c11.3,4.6,21.7,7,31.4,7h0.6c9.7,0,20.2-2.4,31.4-7c11.3-4.6,20.3-9.2,27-13.7s15.6-10.7,26.4-18.7
	c32.3-23.4,79.7-56.3,142.3-98.5C494.3,202.1,503.8,193.8,512,184.6z M512,100.7c0,15-4.7,29.4-14,43.1c-9.3,13.7-21,25.4-34.8,35.1
	c-71.5,49.6-116.1,80.7-133.7,92.8c-1.9,1.3-5.9,4.2-12.2,8.7c-6.1,4.5-11.4,8.1-15.5,10.9c-4.1,2.8-9,5.8-14.8,9.3
	c-5.8,3.5-11.3,5.9-16.4,7.7s-9.9,2.6-14.3,2.6h-0.6c-4.4,0-9.1-0.8-14.3-2.6c-5.1-1.7-10.6-4.3-16.4-7.7
	c-5.7-3.4-10.7-6.6-14.8-9.3c-4.1-2.8-9.2-6.3-15.5-10.9c-6.1-4.5-10.2-7.4-12.2-8.7c-17.3-12.2-42.3-29.6-74.8-52.1
	S55.6,183.5,49.1,179c-11.8-8-22.9-18.9-33.4-33C5.3,132,0,119,0,107c0-14.8,4-27.2,11.9-37.2S31,55,45.8,55h420.4
	c12.4,0,23.1,4.5,32.1,13.4C507.3,77.3,512,88.2,512,100.7L512,100.7z"/>
</svg>
