<?xml version="1.0" encoding="utf-8"?>
<!-- Generator: Adobe Illustrator 19.1.0, SVG Export Plug-In . SVG Version: 6.00 Build 0)  -->
<svg version="1.1" id="Layer_1" xmlns="http://www.w3.org/2000/svg" xmlns:xlink="http://www.w3.org/1999/xlink" x="0px" y="0px"
	 width="512px" height="512px" viewBox="0 0 512 512" enable-background="new 0 0 512 512" xml:space="preserve">
<path fill="#444444" d="M256,0c46.5,0,89.3,11.5,128.5,34.3c39.2,22.9,70.2,54,93.2,93.2c22.9,39.2,34.3,82,34.3,128.5
	s-11.5,89.3-34.3,128.5c-22.9,39.2-54,70.2-93.2,93.2c-39.2,22.8-82,34.3-128.5,34.3s-89.3-11.5-128.5-34.3
	c-39.2-22.9-70.2-54-93.2-93.2S0,302.5,0,256s11.5-89.3,34.3-128.5s54-70.2,93.2-93.2C166.7,11.5,209.5,0,256,0z M347.3,173.7
	c-0.4,0.2-1.5,1.2-3.2,3.2c-1.6,1.8-3.2,3-4.5,3.2c0.4,0,0.9-0.5,1.5-1.6c0.5-1.1,1.1-2.4,1.6-3.7c0.6-1.3,0.9-2.2,1.1-2.4
	c1.3-1.5,3.8-3.3,7.4-5c3.1-1.3,8.9-2.7,17.3-4c7.6-1.7,13.2-0.5,17,3.7c-0.4-0.4,0.6-1.9,3.2-4.3c2.6-2.5,4.2-3.8,4.8-4
	c0.6-0.4,2.4-0.9,5-1.5c2.7-0.5,4.3-1.3,5-2.6l0.7-7.4c-2.7,0.2-4.6-0.5-5.8-2.4c-1.2-1.7-1.9-4.1-2.2-7c0,0.4-0.7,1.3-2,2.7
	c0-1.5-0.5-2.5-1.5-2.7c-1-0.2-2.3-0.1-3.8,0.3c-1.5,0.4-2.6,0.5-3,0.3c-2.3-0.6-3.9-1.5-5-2.6c-1.1-1-1.9-2.9-2.7-5.5
	c-0.7-2.7-1.1-4.3-1.3-5c-0.4-1.1-1.5-2.3-3.2-3.5c-1.6-1.2-2.7-2.4-3.2-3.5c-0.2-0.4-0.5-1-0.8-1.8c-0.3-0.7-0.7-1.5-1-2.2
	c-0.3-0.7-0.7-1.3-1.3-1.8c-0.6-0.5-1.2-0.8-1.8-0.8c-0.6,0-1.4,0.5-2.4,1.6c-0.9,1.1-1.7,2.3-2.6,3.3c-0.7,1.1-1.2,1.6-1.5,1.6
	c-0.6-0.4-1.3-0.6-2-0.5c-0.7,0.1-1.2,0.2-1.5,0.3c-0.3,0.1-0.8,0.4-1.5,1c-0.7,0.5-1.2,0.9-1.6,1.1c-0.6,0.4-1.6,0.8-2.8,1
	c-1.1,0.2-2.2,0.4-2.8,0.7c3.3-1.1,3.2-2.4-0.3-3.7c-2.3-0.9-4-1.2-5.3-1c1.9-0.9,2.9-2.3,2.6-4c-0.3-1.7-1.2-3.4-2.8-4.6h1.6
	c-0.2-0.9-1.1-1.8-2.8-2.8c-1.6-1-3.6-1.9-5.8-2.8c-2.3-0.9-3.7-1.5-4.3-2c-1.7-1.1-5.5-2.2-11.4-3.2c-5.8-1-9.4-1-11-0.2
	c-1.1,1.3-1.6,2.5-1.5,3.5c0.1,1,0.5,2.6,1.3,4.6c0.7,2.2,1.1,3.5,1.1,4.2c0.2,1.3-0.4,2.8-1.8,4.3s-2.2,2.9-2.2,4
	c0,1.5,1.5,3.3,4.6,5.1s4.2,4.3,3.3,7.2c-0.6,1.7-2.5,3.6-5.3,5.3c-2.9,1.7-4.7,3.2-5.3,4c-1.1,1.7-1.2,3.8-0.5,6.1
	c0.7,2.4,1.9,4.2,3.5,5.5c0.4,0.4,0.6,0.9,0.5,1.3c-0.1,0.4-0.5,0.9-1.1,1.5c-0.6,0.6-1.2,1-1.8,1.3c-0.6,0.3-1.3,0.7-2.2,1.1
	l-1,0.7c-2.5,1.1-4.7,0.4-6.9-2c-2.2-2.5-3.6-5.3-4.5-8.7c-1.5-5.5-3.4-8.9-5.3-9.9c-5.1-1.7-8.4-1.6-9.7,0.3
	c-1.1-2.9-5.6-5.8-13.6-8.7c-5.5-1.9-12-2.5-19.4-1.3c1.3-0.2,1.3-1.8,0-5c-1.5-3.3-3.7-4.7-6.3-4c0.6-1.3,1.1-3.3,1.3-5.8
	c0.2-2.6,0.3-4.1,0.3-4.5c0.6-2.9,1.9-5.4,4-7.7c0.2-0.2,1-1.1,2.4-2.8c1.3-1.6,2.4-3.2,3.2-4.5c0.7-1.3,0.8-2,0.2-2
	c7.8,0.9,13.3-0.3,16.7-3.7c1.1-1.1,2.4-3,3.8-5.6c1.4-2.7,2.7-4.6,3.5-5.6c1.9-1.3,3.6-1.9,4.6-1.8c1.1,0.1,2.8,0.7,4.8,1.8
	c2,1.1,3.7,1.6,4.8,1.6c3.1,0.2,4.8-1,5.1-3.7s-0.5-4.9-2.6-6.7c2.7,0.2,3-1.6,1-5.6c-1.1-1.5-1.9-2.6-2.7-3c-2.7-0.9-5.6-0.3-9,1.6
	c-1.7,0.9-1.5,1.7,0.7,2.7c-0.2-0.2-1.2,0.9-3.2,3.5c-1.9,2.6-3.7,4.5-5.5,5.8c-1.7,1.3-3.6,0.8-5.3-1.6c-0.2-0.2-0.8-1.7-1.8-4.5
	c-1-2.8-2-4.3-3.2-4.5c-1.7,0-3.6,1.6-5.3,5c0.6-1.7-0.6-3.4-3.7-5c-3.1-1.5-5.7-2.5-8-2.7c4.2-2.7,3.3-5.6-2.7-9
	c-1.5-0.9-3.8-1.4-6.9-1.6c-3-0.2-5.1,0.2-6.5,1.3c-1.1,1.5-1.7,2.9-1.8,3.8c-0.1,1,0.4,1.8,1.6,2.7c1.2,0.8,2.4,1.3,3.5,1.8
	c1.1,0.4,2.4,0.9,3.8,1.3c1.4,0.4,2.4,0.7,2.8,1c3.1,2.3,4,3.8,2.7,4.6c-0.4,0.2-1.4,0.6-2.8,1.1c-1.4,0.5-2.7,1-3.8,1.5
	c-1.1,0.5-1.8,0.9-2,1.3c-0.6,0.9-0.6,2.5,0,4.6c0.6,2.3,0.4,3.8-0.7,4.6c-1.1-1.1-2.2-3.1-3-5.8c-0.9-2.8-1.6-4.6-2.4-5.5
	c1.5,1.9-1.2,2.7-8.3,2l-3.3-0.3c-0.9,0-2.7,0.2-5.3,0.7c-2.7,0.4-4.9,0.6-6.9,0.3c-1.8-0.2-3.4-1.1-4.5-2.7c-0.9-1.7-0.9-4,0-6.7
	c0.2-0.9,0.7-1.1,1.3-0.7c-0.9-0.6-2.2-1.7-3.7-3.2s-2.7-2.4-3.3-2.8c-10.2,3.3-20.7,7.9-31.3,13.6c1.3,0.2,2.7,0.1,4-0.3
	c1.1-0.4,2.6-1.2,4.3-2.2s2.9-1.6,3.3-1.8c7.6-3.1,12.2-3.9,14-2.4l1.6-1.6c3.1,3.6,5.3,6.3,6.7,8.3c-1.5-0.9-4.9-1-9.9-0.3
	c-4.4,1.3-6.9,2.7-7.4,4c1.5,2.7,2.2,4.7,1.6,6c-0.9-0.6-2.2-1.7-3.8-3.3c-1.6-1.5-3.3-2.8-4.8-3.7c-1.5-0.9-3.2-1.4-5-1.6
	c-3.6,0-6,0.1-7.4,0.3C120.8,86.4,94.7,111,75,142.5c1.5,1.5,2.9,2.5,4,2.7c0.9,0.2,1.4,1.2,1.6,3c0.2,1.7,0.5,3,0.8,3.7
	c0.3,0.7,1.6,0.3,3.8-1c1.9,1.7,2.4,3.9,1,6.3c0.2-0.2,5.1,2.8,14.6,9c4.2,3.8,6.6,6.1,7,7c0.6,2.5-0.4,4.4-3.3,6
	c-0.2-0.4-1.2-1.4-3-3c-1.7-1.5-2.8-1.9-3-1.3c-0.6,1.1-0.6,3.2,0.2,6.1c0.8,3,1.9,4.4,3.5,4.2c-1.5,0-2.7,1.7-3.2,5.3
	s-0.8,7.5-0.8,11.8s-0.1,7-0.3,7.9l0.7,0.3c-0.6,2.7,0,6.6,1.8,11.5s4.3,7.2,7.2,6.5c-2.9,0.6-0.7,5.4,6.7,14.3
	c1.3,1.7,2.3,2.8,2.7,3c0.6,0.4,1.9,1.3,4,2.6c2,1.2,3.7,2.4,5,3.3c1.3,0.9,2.5,2.2,3.3,3.5c0.9,1.1,1.9,3.6,3.3,7.5
	c1.3,3.9,2.9,6.6,4.6,7.9c-0.4,1.3,0.6,3.6,3.2,6.7c2.6,3.1,3.7,5.6,3.5,7.7c-0.2,0-0.5,0.1-0.8,0.3c-0.3,0.2-0.6,0.3-0.8,0.3
	c0.6,1.5,2.4,3.1,5.1,4.6c2.8,1.5,4.5,3,5.1,4.3c0.2,0.6,0.4,1.7,0.7,3.3c0.2,1.5,0.5,2.8,1,3.7c0.4,0.9,1.3,1.1,2.7,0.7
	c0.4-4.4-2.3-11.4-8-20.7c-3.3-5.5-5.2-8.8-5.6-9.7c-0.6-1.1-1.2-2.9-1.8-5.1c-0.6-2.4-1-3.9-1.5-4.8c0.4,0,1.1,0.2,2,0.5
	s1.8,0.7,2.8,1.1c1,0.4,1.8,0.8,2.6,1.3c0.7,0.4,0.9,0.8,0.7,1c-0.6,1.5-0.4,3.5,0.7,5.8c1.1,2.4,2.5,4.4,4,6.1s3.5,3.9,5.6,6.3
	c2.2,2.5,3.6,3.9,4,4.3c1.3,1.3,2.9,3.5,4.6,6.5c1.7,3,1.7,4.5,0,4.5c1.9,0,4.2,1.1,6.7,3.3c2.5,2.3,4.3,4.4,5.6,6.7
	c1.1,1.7,1.9,4.6,2.7,8.7c0.7,4.1,1.2,6.7,1.6,8c0.4,1.5,1.4,3.1,2.8,4.5c1.4,1.4,2.8,2.5,4.2,3.2l5.3,2.7c0,0,1.4,0.8,4.3,2.4
	c1.1,0.4,3.2,1.6,6.1,3.5c3,1.8,5.4,3.2,7.2,3.8c2.3,0.9,4,1.3,5.3,1.3c1.3,0,3-0.3,4.8-0.8c1.8-0.6,3.4-0.9,4.5-1.1
	c3.3-0.4,6.6,1.2,9.7,5c3.2,3.8,5.4,6.1,7,7c8,4.2,14.1,5.4,18.3,3.7c-0.4,0.2-0.4,1,0.2,2.6c0.6,1.4,1.4,3.2,2.7,5.1
	c1.2,1.9,2.2,3.6,3,4.8s1.4,2.2,1.8,2.8c1.1,1.3,3.1,3,6,5c2.9,1.9,4.9,3.7,6,5c1.3-0.9,2.2-1.8,2.4-3c-0.6,1.7,0.1,4,2.4,6.7
	c2.3,2.7,4.2,3.8,6,3.3c3.1-0.6,4.6-4.2,4.6-10.6c-6.9,3.3-12.3,1.3-16.4-6c0-0.2-0.3-0.8-0.8-1.8c-0.6-1-1-1.9-1.3-2.8
	c-0.3-0.9-0.6-1.8-0.8-2.8c-0.2-1-0.2-1.8,0-2.6c0.2-0.7,0.8-1,1.6-1c1.9,0,3.1-0.4,3.3-1.1c0.2-0.7,0-2.2-0.7-4.2
	c-0.7-2-1.1-3.5-1.3-4.3c-0.2-1.7-1.4-4-3.7-6.7c-2.3-2.7-3.6-4.3-4-5c-1.1,1.9-2.9,2.9-5.3,2.7c-2.5-0.2-4.2-1.2-5.3-3
	c0,0.2-0.2,0.8-0.5,1.8c-0.3,1-0.5,1.7-0.5,2.2c-2.9,0-4.6-0.1-5-0.3c0.2-0.6,0.5-2.6,0.8-5.8c0.3-3.3,0.7-5.7,1.1-7.5
	c0.2-0.9,0.8-2.3,1.8-4c1-1.7,1.8-3.4,2.6-4.8c0.7-1.4,1.1-2.8,1.3-4.2c0.2-1.4-0.3-2.5-1.5-3.2c-1.2-0.7-3.2-1-5.8-0.8
	c-4.2,0.2-7.1,2.5-8.7,6.7c-0.2,0.6-0.5,1.8-1,3.5c-0.5,1.6-1,3-1.6,3.8c-0.7,0.9-1.6,1.6-3,2.4c-1.5,0.6-4.2,0.9-8,0.7
	c-3.8-0.2-6.5-0.7-8-1.6c-2.9-1.7-5.4-5-7.5-9.7c-2.2-4.7-3.2-8.8-3.2-12.3c0-2.3,0.3-5.1,0.8-8.8c0.6-3.7,0.9-6.5,1-8.3
	c0.1-1.8-0.5-4.6-1.8-8.2c0.6-0.4,1.6-1.5,3-3.2c1.3-1.6,2.5-2.8,3.3-3.5c0.4-0.2,0.9-0.4,1.5-0.5c0.5-0.1,1-0.1,1.5,0
	c0.5,0.1,0.9-0.1,1.3-0.5c0.4-0.4,0.7-1.1,1-2c-0.2-0.2-0.7-0.5-1.3-1c-0.6-0.6-1.1-1-1.3-1c1.5,0.6,4.7,0.5,9.5-0.5
	c4.8-1,7.9-0.8,9.2,0.5c3.3,2.5,5.7,2.3,7.4-0.7c0-0.2-0.3-1.2-0.8-3.2c-0.6-1.8-0.6-3.4-0.2-4.5c1.1,6,4.3,7,9.7,3
	c0.6,0.6,2.4,1.2,5.1,1.6c2.8,0.4,4.7,1,5.8,1.6c0.6,0.4,1.4,1,2.4,1.8c0.9,0.7,1.5,1.2,1.8,1.5c0.3,0.2,0.8,0.2,1.6-0.2
	c0.8-0.4,1.7-1,2.8-2.2c2.3,3.1,3.6,5.7,4,8c2.5,8.9,4.5,13.7,6.3,14.6c1.5,0.6,2.8,0.9,3.7,0.7c0.9-0.2,1.3-1.2,1.5-3.2
	c0.1-1.9,0.1-3.5,0-4.6c-0.1-1.2-0.3-2.6-0.5-4.2l-0.3-2.7v-6l-0.3-2.7c-3.3-0.6-5.4-1.9-6.1-4c-0.7-2-0.6-4.1,0.5-6.1
	c1.1-2.2,2.8-4.2,5-6.1c0.2-0.2,1.1-0.6,2.7-1.1c1.5-0.5,3.3-1.2,5.1-2.2c1.8-0.9,3.3-1.7,4.2-2.7c4.7-4.2,6.3-8.1,5-11.7
	c1.5,0,2.8-1,3.7-3c-0.2,0-0.8-0.3-1.6-1c-0.9-0.6-1.7-1.2-2.6-1.6c-0.8-0.4-1.3-0.7-1.5-0.7c1.9-1.1,2.3-2.9,0.7-5.3
	c1.1-0.6,1.9-1.8,2.6-3.7c0.6-1.7,1.4-2.9,2.6-3.3c1.9,2.7,4.3,2.9,7,0.7c1.5-1.7,1.6-3.6,0.3-5.3c1.1-1.5,3.4-2.8,6.9-3.5
	c3.5-0.7,5.5-1.8,6.1-3.2c1.5,0.4,2.5,0.2,2.7-0.7c0.2-0.9,0.3-2.3,0.3-4s0.3-3.1,1-4c0.9-1.1,2.6-2.2,5-3c2.5-0.9,3.9-1.4,4.3-1.6
	l5.6-3.7c0.6-0.9,0.6-1.3,0-1.3c4,0.4,7.5-0.7,10.3-3.7c2.3-2.5,1.5-4.7-2-6.7c0.6-1.3,0.3-2.4-1-3.2c-1.3-0.7-3-1.3-5-1.8
	c0.6-0.2,1.9-0.3,3.8-0.2c1.9,0.1,3.1-0.1,3.5-0.5c3.3-2.3,2.6-4-2.4-5.3c-3.8-1.1-8.6,0.2-14.3,4L347.3,173.7z M293,465.9
	c45.8-8,84.8-29,116.9-63c-0.6-0.6-2-1.1-4.2-1.5c-2.2-0.3-3.5-0.7-4.2-1.1c-4-1.5-6.7-2.5-8-2.7c0.2-1.5-0.1-3-0.8-4.3
	c-0.8-1.3-1.6-2.4-2.7-3c-0.9-0.6-2.4-1.5-4.2-2.7s-3.1-1.8-3.7-2.4c-0.4-0.4-1.2-1.1-2.4-2c-1.1-0.9-1.8-1.5-2.4-1.8
	c-0.4-0.3-1.3-0.8-2.6-1.5c-1.2-0.6-2.2-0.9-2.8-0.7c-0.6,0.2-1.7,0.3-3.3,0.3l-1,0.3c-0.6,0.2-1.2,0.5-1.8,0.8
	c-0.6,0.3-1.2,0.7-1.8,1c-0.6,0.3-1.1,0.6-1.3,1c-0.2,0.3-0.2,0.6,0,0.8c-4.7-3.8-8.7-6.2-12-7.4c-1.1-0.2-2.4-0.8-3.7-1.8
	c-1.3-1-2.5-1.7-3.5-2.4c-1-0.6-2.2-0.7-3.3-0.5c-1.2,0.2-2.5,1-3.8,2.4c-1.1,1.1-1.7,2.8-2,5c-0.2,2.3-0.4,3.7-0.7,4.3
	c-1.5-1.1-1.5-3.1,0-5.8c1.5-2.8,1.7-4.8,0.7-6.1c-0.6-1.3-1.8-1.8-3.5-1.5c-1.6,0.3-3,0.8-4,1.5c-1,0.6-2.3,1.6-3.8,2.8
	c-1.5,1.2-2.6,1.9-3,2.2c-0.4,0.2-1.3,0.8-2.8,1.8c-1.4,1-2.4,1.8-2.8,2.6c-0.6,0.9-1.3,2.3-2,4c-0.7,1.7-1.2,3-1.6,3.7
	c-0.4-0.9-1.7-1.6-3.8-2.2c-2.2-0.6-3.2-1.2-3.2-1.8c0.4,2.3,0.9,6.1,1.3,11.7c0.4,5.5,1,9.7,1.6,12.7c1.5,6.9,0.2,12.2-4,16
	c-6,5.5-9.2,9.9-9.7,13.3c-0.9,4.9,0.4,7.8,4,8.7c0,1.5-0.9,3.8-2.7,6.9c-1.7,3.1-2.6,5.3-2.4,7.2
	C292.4,461.9,292.6,463.7,293,465.9L293,465.9z"/>
</svg>
