<svg width="24" height="24" viewBox="0 0 24 24" xmlns="http://www.w3.org/2000/svg"><title>9FBB74BD-FA59-4BBA-AA07-F4E2562DBC5E</title><g fill-rule="nonzero" fill="#23CF70"><path d="M1.355 8.277h4.553v14.638H1.355V8.277zM3.64 1a2.643 2.643 0 0 1 2.64 2.64 2.643 2.643 0 0 1-2.64 2.64A2.638 2.638 0 0 1 1 3.64 2.638 2.638 0 0 1 3.64 1zM8.768 8.277h4.357v2.005h.06c.609-1.15 2.09-2.36 4.307-2.36 4.603 0 5.457 3.029 5.457 6.972v8.021h-4.544V15.8c0-1.7-.025-3.884-2.36-3.884-2.37 0-2.725 1.853-2.725 3.757v7.243H8.776L8.768 8.277z"/></g></svg>