<svg width="24" height="24" viewBox="0 0 24 24" xmlns="http://www.w3.org/2000/svg"><title>12C27254-ECDC-4BAE-A474-13C5643648C0</title><path d="M24 4.309a9.797 9.797 0 0 1-2.828.775 4.933 4.933 0 0 0 2.165-2.724 9.857 9.857 0 0 1-3.127 1.195 4.924 4.924 0 0 0-8.39 4.49A13.98 13.98 0 0 1 1.671 2.902a4.899 4.899 0 0 0-.666 2.476c0 1.708.869 3.216 2.19 4.098a4.91 4.91 0 0 1-2.23-.616v.062a4.928 4.928 0 0 0 3.95 4.828 4.95 4.95 0 0 1-2.225.084 4.93 4.93 0 0 0 4.6 3.42 9.878 9.878 0 0 1-6.115 2.108c-.397 0-.79-.024-1.175-.07a13.934 13.934 0 0 0 7.548 2.213c9.057 0 14.01-7.503 14.01-14.01 0-.213-.005-.426-.014-.637A9.973 9.973 0 0 0 24 4.309z" fill-rule="nonzero" fill="#23CF70"/></svg>