<?xml version="1.0" encoding="utf-8"?>
<!-- Generator: Adobe Illustrator 19.1.0, SVG Export Plug-In . SVG Version: 6.00 Build 0)  -->
<svg version="1.1" id="Layer_1" xmlns="http://www.w3.org/2000/svg" xmlns:xlink="http://www.w3.org/1999/xlink" x="0px" y="0px"
	 width="512px" height="512px" viewBox="0 0 512 512" enable-background="new 0 0 512 512" xml:space="preserve">
<path fill="#444444" d="M454,432.6V216.6H409c4.4,14,6.7,28.6,6.7,43.6c0,28-7.1,53.9-21.3,77.5c-14.2,23.7-33.6,42.4-58,56.1
	c-24.5,13.7-51.1,20.7-80,20.7c-43.8,0-81.2-15.1-112.3-45.2c-31.1-30.1-46.7-66.6-46.7-109.2c0-15.1,2.3-29.7,6.7-43.6H57v216.1
	c0,5.7,1.9,10.6,5.8,14.5c3.9,3.9,8.7,5.8,14.5,5.8h356.4c5.5,0,10.3-1.9,14.3-5.8C452,443.2,454,438.4,454,432.6L454,432.6z
	 M359.3,255c0-27.5-10-51.1-30.2-70.5c-20.1-19.5-44.3-29.2-72.8-29.2c-28.3,0-52.4,9.7-72.5,29.2s-30.2,42.9-30.2,70.5
	s10,51,30.2,70.5c20.1,19.5,44.2,29.2,72.5,29.2c28.5,0,52.7-9.7,72.8-29.2C349.3,306.1,359.3,282.5,359.3,255z M454,135V80
	c0-6.2-2.3-11.6-6.7-16.2c-4.4-4.5-9.9-6.9-16.4-6.9h-58c-6.5,0-11.9,2.3-16.4,6.9c-4.4,4.5-6.7,9.9-6.7,16.2v55
	c0,6.5,2.3,11.9,6.7,16.4c4.4,4.4,9.9,6.7,16.4,6.7h58c6.5,0,11.9-2.3,16.4-6.7C451.8,146.9,454,141.4,454,135z M512,65.6v380.7
	c0,18-6.5,33.5-19.4,46.3c-12.9,12.9-28.4,19.4-46.3,19.4H65.6c-18,0-33.5-6.5-46.3-19.4C6.5,479.7,0,464.3,0,446.4V65.6
	c0-18,6.5-33.5,19.4-46.4S47.6,0,65.6,0h380.7c18,0,33.5,6.5,46.3,19.4S512,47.6,512,65.6z"/>
</svg>
