<?xml version="1.0" encoding="utf-8"?>
<!-- Generator: Adobe Illustrator 19.1.0, SVG Export Plug-In . SVG Version: 6.00 Build 0)  -->
<svg version="1.1" id="Layer_1" xmlns="http://www.w3.org/2000/svg" xmlns:xlink="http://www.w3.org/1999/xlink" x="0px" y="0px"
	 width="512px" height="512px" viewBox="0 0 512 512" enable-background="new 0 0 512 512" xml:space="preserve">
<path fill="#444444" d="M110.9,358.4c-11.7,0-21.8-4.2-30.1-12.5c-8.4-8.4-12.5-18.4-12.5-30.1V128c0-11.7,4.2-21.8,12.5-30.1
	s18.4-12.5,30.1-12.5h290.1c11.7,0,21.8,4.2,30.1,12.5c8.4,8.4,12.5,18.4,12.5,30.1v187.7c0,11.7-4.2,21.8-12.5,30.1
	c-8.4,8.4-18.4,12.5-30.1,12.5H110.9z M102.4,128v187.7c0,2.3,0.8,4.3,2.5,6c1.7,1.7,3.7,2.5,6,2.5h290.1c2.3,0,4.3-0.8,6-2.5
	s2.5-3.7,2.5-6V128c0-2.3-0.8-4.3-2.5-6c-1.7-1.7-3.7-2.5-6-2.5H110.9c-2.3,0-4.3,0.8-6,2.5C103.2,123.7,102.4,125.7,102.4,128z
	 M469.3,375.5H512v25.6c0,7.1-4.2,13.1-12.5,18.1c-8.4,5-18.4,7.5-30.1,7.5H42.7c-11.7,0-21.8-2.5-30.1-7.5
	c-8.4-5-12.5-11-12.5-18.1v-25.6H469.3z M277.3,401.1c2.8,0,4.3-1.4,4.3-4.3c0-2.8-1.4-4.3-4.3-4.3h-42.7c-2.8,0-4.3,1.4-4.3,4.3
	c0,2.8,1.4,4.3,4.3,4.3H277.3z"/>
</svg>
