<svg width="22" height="32" viewBox="0 0 22 32" xmlns="http://www.w3.org/2000/svg"><title>C7B89090-2D53-4F7A-B47D-AB7F7F5E605D</title><g fill="#23CE6B" fill-rule="evenodd"><path d="M15.897 23.598c-.254.708-.987.888-1.528 1.23-.834.527-1.769.895-2.672 1.307-.401.184-.817.257-1.268.074-1.48-.6-2.876-1.342-4.148-2.31-.126-.097-.22-.228-.224-.474.699-.4 1.522-.555 2.3-.814 2.902-.966 2.443-.91 5.28.04.566.188 1.136.366 1.709.531.236.069.455.131.55.416M16.456 29.84c-1.848 1.181-3.898 1.616-6.063 1.623-1.44-.259-2.874-.539-4.165-1.284-.21-.12-.416-.226-.542-.448.016-.322.308-.309.503-.384 1.29-.5 2.585-.987 3.88-1.474.614-.231 1.234-.263 1.855-.018 1.36.538 2.722 1.07 4.078 1.62.173.07.303.241.454.365M6.571 17.391c1.44-.517 2.665-.963 3.896-1.397.385-.136.778-.115 1.17.013 1.242.405 2.47.843 3.72 1.458-.6.696-1.407.962-2.089 1.395-.7.443-1.46.792-2.252 1.213-1.41-.84-2.94-1.484-4.445-2.682M9.549 20.825c-1.737.646-3.284 1.08-4.76 1.572-1.295-.534-2.695-1.806-3.428-3.117 1.021-.633 2.14-.96 3.322-1.067.259-.024.565.072.796.206 1.289.74 2.56 1.51 4.07 2.406M20.788 19.519c-1.08 1.197-2.022 2.303-3.397 2.952-1.52-.493-3.024-.98-4.51-1.465-.08-.473.271-.603.517-.748.923-.54 1.876-1.031 2.8-1.568.738-.43 1.493-.515 2.288-.223.73.266 1.53.39 2.302 1.052M18.185 28.175c-.314.089-.586.25-.826.466-1.273-.595-2.654-.942-4.01-1.673 1.446-.948 2.917-1.634 4.131-2.695 1.033-.195 1.945.233 2.98.414-.496 1.412-1.29 2.51-2.275 3.488M4.63 28.52c-1.643-.888-2.46-2.219-3.06-3.756.728-.443 1.455-.474 2.142-.635.324-.077.655.025.906.212a33.211 33.211 0 0 0 3.69 2.364c.052.028.06.135.139.333-1.187.68-2.587.84-3.817 1.483M9.344 14.856c-1.437.77-2.835 1.168-4.238 1.612-1.077-.566-1.919-1.333-2.51-2.44 1.003-.774 2.072-1.032 3.171-1.185.219-.03.494.04.685.157.931.574 1.844 1.18 2.892 1.856M19.726 13.943l-2.687 2.629c-1.426-.397-2.767-1.035-4.338-1.605 1.08-.855 2.087-1.437 3.105-1.986.25-.134.644-.127.93-.044.938.277 1.858.618 2.99 1.006M14.484 12.087c-1.116.947-2.278 1.438-3.409 2.157-1.159-.594-2.304-1.22-3.365-2.17.984-.637 1.981-.914 2.888-1.372.314-.16.714-.125 1.044.027.894.407 1.774.845 2.842 1.358M9.562 9.536c-.552.516-1.09.666-1.597.877-.474.198-.944.408-1.403.607-1.492-.864-1.666-1.024-2.166-2.05.679-.742 1.588-1.058 2.572-1.203.175-.025.409.063.558.174.656.49 1.292 1.007 2.036 1.595M12.576 9.718c.597-.898 1.55-1.162 2.175-1.877 1.189-.136 2.11.394 3.014 1.121-.442.971-1.305 1.44-1.939 2.163-1.14-.323-2.126-.901-3.25-1.407M8.398 6.976c.849-.516 1.513-.932 2.19-1.326.373-.218.77-.181 1.13.043.6.37 1.188.763 1.818 1.172-.508.99-1.527 1.327-2.34 1.948-1.067-.328-1.805-1.086-2.798-1.837M14.438 2.235c.617.81.893 1.639 1.3 2.454-.193.413-.32.873-.836 1.203-.96-.218-1.783-.783-2.65-1.448.347-.47.88-.639 1.106-1.13.195-.425.585-.728 1.08-1.079M9.939 4.51c-.884.59-1.685.984-2.463 1.359-.48-.24-.748-.566-.984-.976a5.663 5.663 0 0 1 1.2-2.56c.898.588 1.48 1.369 2.247 2.177M9.361 1.871c.53-.668.987-1.316 1.89-1.455.524.42 1.037.831 1.57 1.256-.294.875-.937 1.31-1.614 1.763-.823-.3-1.489-.728-1.846-1.564M2.1 12.613c-.081-1.204.016-2.188.485-3.228.882.632 1.51 1.365 2.188 2.21L2.1 12.614M.903 14.352c.926.92 1.71 1.673 2.443 2.588-.787.396-1.538.666-2.479.915-.076-1.151-.225-2.209.036-3.503M21.081 14.554c.4 1.146.182 2.221.09 3.43l-2.473-.888c.738-.962 1.689-1.616 2.383-2.542M20.085 12.597c-.973-.175-1.793-.497-2.67-.911.553-.687 1.054-1.326 1.58-1.946.164-.193.409-.216.696-.052.347.888.271 1.865.394 2.91M21.651 20.886c-.383 1.381-.533 1.67-1.215 2.388-.351.07-.685-.047-1.043-.165-.088-.76.647-.798 1.01-1.145.372-.355.436-1.052 1.248-1.078M2.805 22.736c-.396.412-.75.442-1.104.457-.89-.704-1.185-1.325-1.125-2.556.688.864 1.3 1.638 2.23 2.099M5.9 6.439c-.405.445-.833.565-1.39.604.114-.568.19-1.053.577-1.419.516.285.516.285.813.815M17.49 7.143c-.453-.21-.887-.278-1.135-.665.072-.396.325-.606.725-.784.322.417.519.848.41 1.45"/></g></svg>