<?xml version="1.0" encoding="utf-8"?>
<!-- Generator: Adobe Illustrator 19.1.0, SVG Export Plug-In . SVG Version: 6.00 Build 0)  -->
<svg version="1.1" id="Layer_1" xmlns="http://www.w3.org/2000/svg" xmlns:xlink="http://www.w3.org/1999/xlink" x="0px" y="0px"
	 width="512px" height="512px" viewBox="0 0 512 512" enable-background="new 0 0 512 512" xml:space="preserve">
<path fill="#444444" d="M341.3,170.7c0-23.5-8.3-43.6-25-60.3c-16.7-16.7-36.8-25-60.3-25s-43.6,8.3-60.3,25
	c-16.7,16.7-25,36.8-25,60.3s8.3,43.6,25,60.3c16.7,16.7,36.8,25,60.3,25s43.6-8.3,60.3-25C333,214.3,341.3,194.2,341.3,170.7z
	 M426.7,170.7c0,24.3-3.7,44.1-11.1,59.7l-121.3,258c-3.6,7.4-8.8,13.1-15.9,17.3s-14.5,6.3-22.5,6.3s-15.5-2.1-22.5-6.3
	c-7-4.2-12.2-10-15.5-17.3l-121.6-258c-7.4-15.6-11.1-35.4-11.1-59.7c0-47.1,16.7-87.3,50-120.6S209,0,256.1,0s87.3,16.7,120.6,50
	S426.7,123.6,426.7,170.7z"/>
</svg>
