<?xml version="1.0" encoding="utf-8"?>
<!-- Generator: Adobe Illustrator 19.1.0, SVG Export Plug-In . SVG Version: 6.00 Build 0)  -->
<svg version="1.1" id="Layer_1" xmlns="http://www.w3.org/2000/svg" xmlns:xlink="http://www.w3.org/1999/xlink" x="0px" y="0px"
	 width="512px" height="512px" viewBox="0 0 512 512" enable-background="new 0 0 512 512" xml:space="preserve">
<path fill="#444444" d="M512,404.5c0,6.6-1.2,15.1-3.6,25.6c-2.5,10.5-4.9,18.8-7.7,24.9c-5.1,12.1-19.9,25-44.3,38.5
	C433.7,505.9,411,512,388.7,512c-6.6,0-12.9-0.4-19-1.2c-6.1-0.8-13.1-2.4-20.9-4.6c-7.8-2.3-13.5-4-17.3-5.2
	c-3.8-1.3-10.4-3.8-20.2-7.5c-9.7-3.7-15.7-5.8-17.8-6.6c-23.8-8.5-45-18.5-63.6-30.2c-31-19.1-63.1-45.3-96.2-78.4
	s-59.2-65.1-78.4-96.2c-11.7-18.6-21.7-39.9-30.2-63.6c-0.7-2.2-2.9-8.1-6.6-17.8c-3.7-9.7-6.1-16.5-7.5-20.2
	c-1.3-3.7-3.1-9.5-5.2-17.3c-2.3-7.8-3.7-14.7-4.6-20.9c-0.8-6.1-1.2-12.5-1.2-19C0,101,6.1,78.4,18.5,55.6
	C32.2,31.1,45,16.3,57,11.3c6-2.7,14.3-5.2,24.9-7.7S101.1,0,107.5,0c3.4,0,5.9,0.3,7.7,1c4.4,1.4,10.8,10.6,19.3,27.6
	c2.7,4.6,6.3,11.2,10.9,19.7c4.6,8.5,8.8,16.2,12.7,23c3.9,6.9,7.7,13.4,11.3,19.5c0.7,0.9,2.9,4,6.3,9.1c3.6,5.1,6.1,9.4,7.8,12.9
	c1.6,3.5,2.6,7,2.6,10.3c0,4.8-3.5,11-10.3,18.2c-7,7.3-14.4,13.9-22.5,20s-15.6,12.5-22.5,19.3c-7,6.8-10.3,12.4-10.3,16.7
	c0,2.2,0.6,4.9,1.8,8.2c1.2,3.3,2.3,5.7,3.1,7.5c0.8,1.6,2.6,4.6,5.1,8.7c2.6,4.1,3.9,6.5,4.2,6.9c18.4,33.2,39.5,61.6,63.3,85.5
	c23.8,23.8,52.2,44.9,85.5,63.3c0.5,0.2,2.8,1.6,6.9,4.2s7,4.2,8.7,5.1c1.7,0.8,4.2,1.8,7.5,3.1c3.3,1.2,5.9,1.8,8.2,1.8
	c4.4,0,9.9-3.5,16.7-10.3c6.8-7,13.2-14.4,19.3-22.5c6-8.1,12.8-15.6,20-22.5c7.3-7,13.3-10.3,18.2-10.3c3.4,0,6.9,0.8,10.3,2.6
	c3.6,1.7,7.9,4.3,12.9,7.8c5,3.5,8.1,5.6,9.1,6.3c6,3.6,12.5,7.4,19.5,11.3c7,3.9,14.6,8.1,23,12.7c8.5,4.6,15.1,8.2,19.7,10.9
	c17,8.5,26.2,14.8,27.6,19.3C511.6,398.4,511.9,401,512,404.5L512,404.5z"/>
</svg>
