<?xml version="1.0" encoding="utf-8"?>
<!-- Generator: Adobe Illustrator 19.1.0, SVG Export Plug-In . SVG Version: 6.00 Build 0)  -->
<svg version="1.1" id="Layer_1" xmlns="http://www.w3.org/2000/svg" xmlns:xlink="http://www.w3.org/1999/xlink" x="0px" y="0px"
	 width="512px" height="512px" viewBox="0 0 512 512" enable-background="new 0 0 512 512" xml:space="preserve">
<path fill="#444444" d="M512,255.9c0,46.4-11.4,89.3-34.3,128.5c-22.9,39.2-53.9,70.3-93.2,93.2c-39.2,22.9-82,34.3-128.5,34.3
	c-24.7,0-48.9-3.6-72.6-10.7c13.1-20.7,21.8-38.9,26-54.6c2-7.6,8-31,18-70.3c4.4,8.7,12.5,16.2,24.3,22.5c11.8,6.3,24.4,9.5,38,9.5
	c26.9,0,50.9-7.6,72-22.8c21.1-15.2,37.4-36.2,49-62.8c11.5-26.7,17.3-56.7,17.3-90c0-25.3-6.6-49.1-19.8-71.3
	c-13.2-22.2-32.4-40.3-57.5-54.3c-25.1-14-53.4-21-85-21c-23.3,0-45.1,3.2-65.3,9.7c-20.2,6.5-37.4,15-51.5,25.7
	c-14.1,10.7-26.2,22.9-36.3,36.8S95,186.5,90.3,201.4c-4.7,14.9-7.1,29.8-7.2,44.7c0,23.1,4.4,43.4,13.3,61
	c8.9,17.5,21.9,29.9,39,37c6.7,2.7,10.9,0.5,12.7-6.7c0.5-1.6,1.3-5,2.6-10.3s2.2-8.6,2.6-10c1.3-5.1,0.1-9.9-3.7-14.3
	c-11.3-13.6-17-30.3-17-50.3c0-33.6,11.6-62.4,34.8-86.5s53.6-36.1,91.1-36.2c33.6,0,59.7,9.1,78.5,27.3
	c18.8,18.2,28.2,41.9,28.2,71c0,37.8-7.6,69.9-22.8,96.3c-15.2,26.4-34.7,39.7-58.5,39.7c-13.6,0-24.5-4.8-32.7-14.5
	c-8.2-9.7-10.8-21.3-7.7-34.8c1.8-7.8,4.7-18.1,8.8-31.1c4.1-13,7.4-24.4,10-34.3c2.5-9.9,3.8-18.3,3.8-25.2c0-11.1-3-20.3-9-27.6
	c-6-7.3-14.6-11-25.7-11c-13.8,0-25.4,6.3-35,19c-9.6,12.7-14.3,28.4-14.3,47.3c0,16.2,2.8,29.8,8.3,40.6l-33,139.3
	c-3.8,15.6-5.2,35.2-4.4,59c-45.8-20.2-82.7-51.4-111-93.6C14.1,354.9,0,307.9,0,256.1c0-46.4,11.4-89.3,34.3-128.5
	s53.9-70.3,93.2-93.2S209.5,0.1,256,0.1s89.3,11.4,128.5,34.3s70.3,53.9,93.2,93.2c22.9,39.2,34.3,82,34.3,128.5L512,255.9z"/>
</svg>
