<?xml version="1.0" encoding="utf-8"?>
<!-- Generator: Adobe Illustrator 19.1.0, SVG Export Plug-In . SVG Version: 6.00 Build 0)  -->
<svg version="1.1" id="Layer_1" xmlns="http://www.w3.org/2000/svg" xmlns:xlink="http://www.w3.org/1999/xlink" x="0px" y="0px"
	 width="512px" height="512px" viewBox="0 0 512 512" enable-background="new 0 0 512 512" xml:space="preserve">
<path fill="#444444" d="M511.7,137.2c-2.1,49.5-36.9,117.7-104.4,204.7c-69.8,90.4-128.8,135.5-176.8,135.5
	c-29.8,0-54.9-27.6-75.5-82.7c-9.2-33.5-23.1-84.1-41.5-151.6c-15.1-54.9-31.6-82.4-49.4-82.4c-3.8,0-17.1,8-39.9,23.9L0,153.8
	c5-4.4,16.3-14.5,34-30.4s31.3-27.9,40.9-36.3c32.7-28.9,58-44.2,75.8-45.9c19.9-1.9,35.9,3.9,48.1,17.5
	c12.2,13.5,20.7,34.9,25.5,64c9.2,60.2,16.2,99.3,20.8,117.3c11.5,52.2,24.1,78.3,37.7,78.3c10.7,0,26.8-16.9,48.4-50.6
	c21.2-33.8,32.6-59.6,34.3-77.4c2.7-29.1-8.7-43.7-34.3-43.7c-11.9,0-24.6,2.7-38,8.2c25.1-82.4,73.3-122.4,144.4-120.1
	C490.1,36.3,514.9,70.5,511.7,137.2L511.7,137.2z"/>
</svg>
