<?xml version="1.0" encoding="utf-8"?>
<!-- Generator: Adobe Illustrator 19.1.0, SVG Export Plug-In . SVG Version: 6.00 Build 0)  -->
<svg version="1.1" id="Layer_1" xmlns="http://www.w3.org/2000/svg" xmlns:xlink="http://www.w3.org/1999/xlink" x="0px" y="0px"
	 width="512px" height="512px" viewBox="0 0 512 512" enable-background="new 0 0 512 512" xml:space="preserve">
<path fill="#444444" d="M327.8,281.8c2.9,0,13.6,4.9,32.3,14.6c18.6,9.7,28.5,15.5,29.6,17.5c0.5,1.1,0.7,2.8,0.7,5
	c0,7.3-1.9,15.7-5.6,25.1c-3.5,8.6-11.4,15.8-23.5,21.7c-12.1,5.8-23.4,8.8-33.7,8.8c-12.6,0-33.5-6.8-62.8-20.5
	c-21.6-9.9-40.4-22.9-56.2-39s-32.2-36.5-48.9-61.2c-15.9-23.6-23.7-45-23.5-64.2v-2.6c0.6-20.1,8.8-37.5,24.5-52.2
	c5.3-4.9,11-7.3,17.2-7.3c1.3,0,3.3,0.2,6,0.5s4.7,0.5,6.3,0.5c4.2,0,7.1,0.7,8.8,2.2c1.7,1.4,3.4,4.5,5.1,9.1
	c1.7,4.4,5.4,14.1,10.9,29.1s8.3,23.3,8.3,24.8c0,4.6-3.8,11-11.4,19c-7.6,8-11.4,13.2-11.4,15.4c0,1.6,0.6,3.2,1.7,5
	c7.5,16.1,18.8,31.2,33.7,45.3c12.4,11.7,29,22.8,50,33.4c2.7,1.6,5.1,2.3,7.3,2.3c3.3,0,9.3-5.3,17.9-16
	C319.2,287.2,324.9,281.8,327.8,281.8L327.8,281.8z M260.6,457.1c28,0,54.8-5.5,80.5-16.6c25.7-11,47.8-25.8,66.3-44.3
	c18.5-18.5,33.3-40.6,44.3-66.3c11-25.7,16.6-52.5,16.6-80.5s-5.5-54.8-16.6-80.5c-11-25.7-25.8-47.8-44.3-66.3
	c-18.5-18.5-40.6-33.3-66.3-44.3c-25.7-11-52.5-16.6-80.5-16.6c-28,0-54.8,5.5-80.5,16.6s-47.8,25.8-66.3,44.3s-33.3,40.6-44.3,66.3
	S53,221.4,53,249.4c0,44.8,13.2,85.3,39.7,121.7l-26.1,77l80-25.5C181.4,445.6,219.4,457.1,260.6,457.1z M260.6,0
	c33.7,0,66,6.6,96.7,19.9s57.3,31,79.5,53.3c22.3,22.3,40,48.8,53.3,79.5s19.9,63,19.9,96.7s-6.6,66-19.9,96.7s-31,57.3-53.3,79.5
	c-22.3,22.3-48.8,40-79.5,53.3c-30.8,13.2-63,19.9-96.7,19.9c-43,0-83.2-10.4-120.7-31.1L2,512l45-133.9
	c-23.8-39.3-35.7-82.1-35.7-128.6c0-33.7,6.6-66,19.9-96.7s31-57.3,53.3-79.5s48.8-40,79.5-53.3S226.9,0,260.6,0L260.6,0z"/>
</svg>
