<?xml version="1.0" encoding="utf-8"?>
<!-- Generator: Adobe Illustrator 19.1.0, SVG Export Plug-In . SVG Version: 6.00 Build 0)  -->
<svg version="1.1" id="Layer_1" xmlns="http://www.w3.org/2000/svg" xmlns:xlink="http://www.w3.org/1999/xlink" x="0px" y="0px"
	 width="512px" height="512px" viewBox="0 0 512 512" enable-background="new 0 0 512 512" xml:space="preserve">
<path fill="#444444" d="M477.9,298.7V76.8c0-2.3-0.8-4.3-2.5-6c-1.7-1.7-3.7-2.5-6-2.5H42.7c-2.3,0-4.3,0.8-6,2.5
	c-1.7,1.7-2.5,3.7-2.5,6v221.9c0,2.3,0.8,4.3,2.5,6c1.7,1.7,3.7,2.5,6,2.5h426.7c2.3,0,4.3-0.8,6-2.5C477,303,477.9,301,477.9,298.7
	z M512,76.8v290.1c0,11.7-4.2,21.8-12.5,30.1c-8.4,8.4-18.4,12.5-30.1,12.5H324.3c0,6.6,1.4,13.5,4.3,20.7
	c2.8,7.2,5.7,13.5,8.5,18.9c2.8,5.4,4.3,9.3,4.3,11.6c0,4.6-1.7,8.6-5.1,12c-3.4,3.4-7.4,5.1-12,5.1H187.7c-4.6,0-8.6-1.7-12-5.1
	c-3.4-3.4-5.1-7.4-5.1-12c0-2.5,1.4-6.4,4.3-11.7c2.8-5.3,5.7-11.6,8.5-18.7c2.8-7.1,4.3-14,4.3-20.8H42.7
	c-11.7,0-21.8-4.2-30.1-12.5C4.2,388.7,0,378.7,0,366.9V76.8C0,65.1,4.2,55,12.5,46.7s18.4-12.5,30.1-12.5h426.7
	c11.7,0,21.8,4.2,30.1,12.5C507.8,55,512,65.1,512,76.8z"/>
</svg>
