<?xml version="1.0" encoding="utf-8"?>
<!-- Generator: Adobe Illustrator 19.1.0, SVG Export Plug-In . SVG Version: 6.00 Build 0)  -->
<svg version="1.1" id="Layer_1" xmlns="http://www.w3.org/2000/svg" xmlns:xlink="http://www.w3.org/1999/xlink" x="0px" y="0px"
	 width="512px" height="512px" viewBox="0 0 512 512" enable-background="new 0 0 512 512" xml:space="preserve">
<path fill="#444444" d="M228.9,244.8c0,7.4,3.3,14.6,9.8,21.7c6.6,7.1,14.5,14,23.9,20.9c9.3,6.9,18.6,14.4,27.9,22.6
	c9.2,8.2,17.1,18.9,23.8,32.1c6.6,13.1,9.8,27.6,9.8,43.7c0,18.4-4.9,36.2-14.7,53.2c-14.7,25-36.5,43.4-64.9,55.2
	c-28.5,11.8-59.1,17.7-91.8,17.7c-27,0-52.3-4.3-75.9-12.8c-23.6-8.5-41.1-22.6-52.7-42.3c-7.6-12.3-11.4-25.7-11.4-40.3
	c0-16.6,4.6-32.1,13.7-46.2c9.1-14.1,21.3-25.9,36.5-35.3c26.8-16.8,68.3-27.1,124.3-30.7c-6.6-8.6-11.5-16.2-14.6-22.7
	c-3.2-6.6-4.8-14-4.8-22.4c0-7.4,2.2-16.1,6.5-26.1c-9.4,0.8-16.4,1.2-20.9,1.2c-30.3,0-55.9-9.9-76.8-29.7s-31.2-44.9-31.2-75.3
	c0-16.8,3.7-33.2,11.1-48.9S73.8,51.2,86.7,40c15.8-13.5,34.5-23.7,56.2-30.2s43.9-9.8,67-9.8h128.6L296,27h-40.3
	c15.2,12.9,26.6,26.5,34.5,41c7.8,14.3,11.7,30.8,11.7,49.3c0,14.7-2.5,28.1-7.5,39.8c-5,11.8-11.1,21.3-18.1,28.7
	c-7.1,7.3-14.2,13.9-21.4,20s-13.3,12.4-18.3,18.9c-5,6.6-7.6,13.3-7.5,20.3L228.9,244.8z M184,215.2c7.8,0,15.8-1.7,24-5.1
	c8.2-3.4,15-7.9,20.3-13.4c10.9-11.7,16.3-28,16.3-48.9c0-11.9-1.7-24.7-5.2-38.5c-3.5-13.8-8.5-27-15-39.8s-15.2-23.4-26-31.8
	S175.5,25,162.3,25c-8.6,0-17.1,1.9-25.4,5.9s-15.1,9.4-20.2,16.2c-9.6,12.1-14.4,28.6-14.4,49.3c0,9.4,1,19.5,3.1,30
	c2,10.5,5.3,21.2,9.7,31.7c4.4,10.5,9.7,20.1,16,28.5c6.2,8.4,13.9,15.3,23,20.6C163.4,212.5,173.3,215.1,184,215.2L184,215.2z
	 M184.6,483.9c11.9,0,23.3-1.3,34.3-4c11-2.7,21.1-6.7,30.4-12c9.3-5.3,16.8-12.8,22.4-22.4c5.6-9.6,8.5-20.8,8.5-33.6
	c0-5.1-0.7-10.1-2.2-15.1c-1.4-4.9-3-9.2-4.4-12.9c-1.5-3.7-4.3-7.9-8.3-12.8c-4-4.8-7.1-8.4-9-10.8c-1.9-2.4-5.9-5.8-11.9-10.6
	c-5.8-4.7-9.6-7.8-11.3-8.9c-1.6-1.2-5.8-4.3-12.8-9.2c-7-4.9-10.6-7.6-11.3-8c-3.3-0.4-8.2-0.6-14.7-0.6c-10.9,0-21.6,0.7-32.3,2.2
	s-21.7,4-33.1,7.7s-21.3,8.4-29.9,14.1c-8.5,5.7-15.6,13.4-21.1,22.9s-8.3,20.4-8.3,32.5c0,14.3,3.6,27,10.8,38s16.6,19.5,28.2,25.5
	c11.6,6,23.9,10.5,36.7,13.5S171.3,483.8,184.6,483.9L184.6,483.9z M433.8,214.3h65.5v33.3h-65.5V315h-32.3v-67.4h-65.2v-33.3h65.2
	v-66.8h32.3V214.3z"/>
</svg>
