<?xml version="1.0" encoding="utf-8"?>
<!-- Generator: Adobe Illustrator 19.1.0, SVG Export Plug-In . SVG Version: 6.00 Build 0)  -->
<svg version="1.1" id="Layer_1" xmlns="http://www.w3.org/2000/svg" xmlns:xlink="http://www.w3.org/1999/xlink" x="0px" y="0px"
	 width="512px" height="512px" viewBox="0 0 512 512" enable-background="new 0 0 512 512" xml:space="preserve">
<path fill="#444444" d="M116.3,170.4v330.3H6.3V170.4H116.3z M123.3,68.3c0.2,16.2-5.4,29.8-16.8,40.6S80,125.2,61.3,125.2h-0.7
	c-18.2,0-32.9-5.5-43.9-16.3S0,84.4,0,68.3c0-16.4,5.7-30,17.1-40.8S43.6,11.3,62,11.3s33.3,5.4,44.3,16.1S122.9,51.8,123.3,68.3
	L123.3,68.3z M512,311.3v189.3H402.4V323.9c0-23.3-4.5-41.6-13.5-54.8s-23-19.9-42.2-19.9c-14,0-25.7,3.8-35.1,11.5
	c-9.4,7.6-16.5,17.2-21.1,28.5c-2.4,6.7-3.6,15.7-3.6,27v184.3H177.2c0.5-88.7,0.7-160.6,0.7-215.7s-0.1-88-0.3-98.7l-0.3-16h109.6
	v48h-0.7c4.4-7.1,9-13.3,13.7-18.7c4.7-5.4,11-11.2,18.8-17.3c7.9-6.2,17.5-11.1,29-14.5c11.5-3.4,24.2-5.2,38.2-5.2
	c38,0,68.5,12.6,91.6,37.9C500.5,225.7,512,262.6,512,311.3L512,311.3z"/>
</svg>
