<?xml version="1.0" encoding="utf-8"?>
<!-- Generator: Adobe Illustrator 19.1.0, SVG Export Plug-In . SVG Version: 6.00 Build 0)  -->
<svg version="1.1" id="Layer_1" xmlns="http://www.w3.org/2000/svg" xmlns:xlink="http://www.w3.org/1999/xlink" x="0px" y="0px"
	 width="512px" height="512px" viewBox="0 0 512 512" enable-background="new 0 0 512 512" xml:space="preserve">
<path fill="#444444" d="M288,460.8c0-8.8-3.1-16.3-9.4-22.6c-6.3-6.2-13.8-9.4-22.6-9.4c-8.8,0-16.3,3.1-22.6,9.4
	c-6.3,6.3-9.4,13.8-9.4,22.6c0,8.7,3.1,16.3,9.4,22.6c6.3,6.3,13.8,9.5,22.6,9.4c8.8,0,16.3-3.2,22.6-9.4
	C284.9,477.1,288,469.6,288,460.8z M371.2,396.8V115.2c0-3.5-1.3-6.5-3.8-9c-2.5-2.5-5.5-3.8-9-3.8H153.6c-3.5,0-6.5,1.3-9,3.8
	c-2.5,2.5-3.8,5.5-3.8,9v281.6c0,3.5,1.3,6.5,3.8,9c2.5,2.5,5.5,3.8,9,3.8h204.8c3.5,0,6.5-1.3,9-3.8
	C369.9,403.3,371.2,400.3,371.2,396.8z M294.4,57.6c0-4.3-2.1-6.4-6.4-6.4h-64c-4.3,0-6.4,2.1-6.4,6.4s2.1,6.4,6.4,6.4h64
	C292.3,64,294.4,61.9,294.4,57.6z M409.6,51.2v409.6c0,13.9-5.1,25.9-15.2,36c-10.1,10.1-22.1,15.2-36,15.2H153.6
	c-13.9,0-25.9-5.1-36-15.2s-15.2-22.1-15.2-36V51.2c0-13.9,5.1-25.9,15.2-36S139.7,0,153.6,0h204.8c13.9,0,25.9,5.1,36,15.2
	C404.5,25.3,409.6,37.3,409.6,51.2z"/>
</svg>
