<?xml version="1.0" encoding="utf-8"?>
<!-- Generator: Adobe Illustrator 19.1.0, SVG Export Plug-In . SVG Version: 6.00 Build 0)  -->
<svg version="1.1" id="Layer_1" xmlns="http://www.w3.org/2000/svg" xmlns:xlink="http://www.w3.org/1999/xlink" x="0px" y="0px"
	 width="512px" height="512px" viewBox="0 0 512 512" enable-background="new 0 0 512 512" xml:space="preserve">
<path fill="#444444" d="M59,183.6c0-22.1,3.9-43,11.6-62.6S89,84.4,102.5,69.9C116,55.3,131.6,42.7,149.3,32s36.6-18.6,56.9-24
	c20.3-5.3,41.1-8,62.2-8c32.4,0,62.6,6.9,90.4,20.5c28,13.6,50.6,33.5,68,59.5c17.4,26,26.1,55.5,26.1,88.3c0,19.7-1.9,39-5.8,57.9
	c-3.9,18.8-10,37.1-18.4,54.5c-8.4,17.4-18.6,32.8-30.7,46c-12.1,13.2-26.9,23.8-44.7,31.8c-17.7,7.9-37.1,11.9-58.2,11.9
	c-13.9,0-27.8-3.3-41.6-9.8c-13.7-6.6-23.6-15.6-29.5-27.1c-2,8-4.9,19.6-8.6,34.6c-3.7,15.1-6.1,24.8-7.3,29.2
	c-1.1,4.4-3.3,11.7-6.4,21.8c-3.1,10.1-5.7,17.4-8,21.8c-2.3,4.4-5.5,10.9-9.8,19.3c-4.3,8.4-9,16.4-14.1,23.9
	c-5.1,7.5-11.5,16.4-19.1,26.6l-4.3,1.5l-2.8-3.1c-3.1-32.3-4.6-51.5-4.6-57.9c0-18.8,2.3-40,6.7-63.5s11.3-53,20.5-88.5
	s14.5-56.3,16-62.5c-6.6-13.3-9.8-30.6-9.8-52c0-17,5.3-33,16-48c10.7-15,24.2-22.4,40.7-22.4c12.5,0,22.2,4.2,29.2,12.5
	c7,8.3,10.4,18.8,10.4,31.5c0,13.5-4.5,33.2-13.5,58.8c-9,25.6-13.5,44.9-13.5,57.6c0,12.9,4.6,23.7,13.8,32.2
	c9.2,8.5,20.4,12.8,33.6,12.8c11.3,0,21.7-2.6,31.4-7.7c9.6-5.1,17.7-12.1,24.2-20.9c6.5-8.8,12.2-18.5,17.2-29.2
	c5-10.7,8.9-22,11.7-34c2.8-12,4.8-23.4,6.1-34.1c1.3-10.8,2-21,2-30.6c0-35.5-11.3-63.1-33.7-83c-22.4-19.8-51.7-29.7-87.9-29.7
	c-41.1,0-75.3,13.3-102.7,39.8s-41.2,60.2-41.3,101.1c0,9,1.3,17.7,3.9,26.1c2.6,8.4,5.3,15.1,8.3,20c3,4.9,5.7,9.6,8.3,14
	c2.6,4.4,3.9,7.5,3.9,9.4c0,5.7-1.5,13.2-4.6,22.4s-6.9,13.8-11.4,13.8c-0.4,0-2.2-0.3-5.2-0.9c-10.4-3.1-19.8-8.8-27.9-17.2
	c-8.1-8.4-14.3-18.1-18.7-29.1c-4.4-11-7.8-22-10-33.3c-2.3-11.2-3.4-22.1-3.4-32.8L59,183.6z"/>
</svg>
