<?xml version="1.0" encoding="utf-8"?>
<!-- Generator: Adobe Illustrator 19.1.0, SVG Export Plug-In . SVG Version: 6.00 Build 0)  -->
<svg version="1.1" id="Layer_1" xmlns="http://www.w3.org/2000/svg" xmlns:xlink="http://www.w3.org/1999/xlink" x="0px" y="0px"
	 width="512px" height="512px" viewBox="0 0 512 512" enable-background="new 0 0 512 512" xml:space="preserve">
<path fill="#444444" d="M279.3,465.5c0-6.3-2.3-11.8-6.9-16.4c-4.6-4.6-10.1-6.9-16.4-6.9s-11.8,2.3-16.4,6.9s-6.9,10-6.9,16.4
	c0,6.4,2.3,11.8,6.9,16.4s10.1,6.9,16.4,6.9c6.3,0,11.8-2.3,16.4-6.9C277,477.2,279.3,471.8,279.3,465.5z M418.9,407.3V58.2
	c0-3.2-1.1-5.9-3.4-8.2c-2.3-2.3-5-3.4-8.2-3.4H104.7c-3.2,0-5.9,1.1-8.2,3.4c-2.3,2.3-3.4,5-3.4,8.2v349.1c0,3.2,1.1,5.9,3.4,8.2
	s5,3.4,8.2,3.4h302.5c3.2,0,5.9-1.1,8.2-3.4C417.8,413.2,418.9,410.4,418.9,407.3z M465.5,58.2v395.6c0,16-5.7,29.7-17.1,41.1
	C437,506.3,423.3,512,407.3,512H104.7c-16,0-29.7-5.7-41.1-17.1c-11.4-11.4-17.1-25.1-17.1-41.1V58.2c0-16,5.7-29.7,17.1-41.1
	S88.7,0,104.7,0h302.5c16,0,29.7,5.7,41.1,17.1C459.8,28.5,465.5,42.2,465.5,58.2z"/>
</svg>
