<?xml version="1.0" encoding="utf-8"?>
<!-- Generator: Adobe Illustrator 19.1.0, SVG Export Plug-In . SVG Version: 6.00 Build 0)  -->
<svg version="1.1" id="Layer_1" xmlns="http://www.w3.org/2000/svg" xmlns:xlink="http://www.w3.org/1999/xlink" x="0px" y="0px"
	 width="512px" height="512px" viewBox="0 0 512 512" enable-background="new 0 0 512 512" xml:space="preserve">
<path fill="#444444" d="M511.9,97.4c-14.5,21.2-32,39.3-52.6,54.3c0.2,3,0.3,7.6,0.3,13.6c0,28.2-4.2,56.3-12.4,84.3
	c-8.2,28-20.7,54.9-37.5,80.7c-16.8,25.8-36.7,48.5-59.9,68.4c-23.2,19.8-51.1,35.7-83.8,47.5c-32.7,11.8-67.7,17.7-104.9,17.7
	c-58.7,0-112.4-15.7-161.1-47.1c7.6,0.8,16,1.3,25.4,1.3c48.7,0,92.1-15,130.3-44.8c-22.7-0.4-43.1-7.4-61.1-20.9
	s-30.3-30.8-37.1-51.8c7.1,1.1,13.8,1.7,19.9,1.7c9.3,0,18.5-1.2,27.6-3.6c-24.3-5-44.3-17-60.3-36.2
	c-15.9-19.1-23.9-41.4-23.9-66.8v-1.3c14.7,8.2,30.5,12.6,47.5,13.3c-14.3-9.6-25.7-21.9-34.1-37.3s-12.6-32-12.7-50
	c0-19,4.7-36.7,14.3-53c26.2,32.3,58.1,58.1,95.7,77.5s77.8,30.2,120.6,32.3c-1.7-8.2-2.6-16.2-2.6-24c0-29,10.2-53.8,30.7-74.2
	c20.5-20.5,45.3-30.8,74.3-30.8c30.3,0,55.9,11.1,76.6,33.2c23.6-4.6,45.8-13,66.6-25.4c-8,24.9-23.4,44.1-46.1,57.9
	C471.7,111.6,491.9,106.2,511.9,97.4L511.9,97.4z"/>
</svg>
