<?xml version="1.0" encoding="utf-8"?>
<!-- Generator: Adobe Illustrator 19.1.0, SVG Export Plug-In . SVG Version: 6.00 Build 0)  -->
<svg version="1.1" id="Layer_1" xmlns="http://www.w3.org/2000/svg" xmlns:xlink="http://www.w3.org/1999/xlink" x="0px" y="0px"
	 width="512px" height="512px" viewBox="0 0 512 512" enable-background="new 0 0 512 512" xml:space="preserve">
<path fill="#444444" d="M480.5,254.6v61c-20.7,4.7-41.1,7.1-61,7.1c-13.3,27.9-30.3,55.7-51,83.4c-20.6,27.7-39.3,49.8-55.9,66.4
	c-16.6,16.5-29.8,27.5-39.4,32.8c-16.4,9.2-33.1,8.9-49.9-0.9c-5.8-3.5-12-8-18.6-13.4c-6.7-5.4-15.4-14-26.2-25.7
	c-10.8-11.7-21.3-24.9-31.6-39.6c-10.3-14.7-21.3-33.6-33.1-56.7c-11.8-23.1-22.6-48.1-32.5-75.1c-9.9-27-19.2-59.3-28.2-96.8
	S37.1,119.5,31.5,77h87.1c5.3,44.7,12.5,85.6,21.6,122.7c9,37,19.8,69.6,32.2,97.6c12.4,28,24.9,52.2,37.4,72.5
	c12.5,20.3,26.9,40.3,43.1,60c34.7-34.7,64.1-76.4,88.4-125c-29.1-14.8-52-37.4-68.7-67.7s-24.9-64.6-24.9-102.5
	c0-39.4,10.7-71.7,32-96.8S330.2,0,367.1,0c36.5,0,64.6,10.8,84.1,32.5s29.2,52.2,29.2,91.6c0,32.6-6,62-17.9,88
	c-1.4,0.2-3.4,0.5-6,0.9c-2.5,0.4-7.3,0.6-14.1,0.6s-13.3-0.6-19.4-1.9c-6-1.3-12.4-3.9-19.1-7.8c-6.7-4-11.9-9.2-15.6-15.8
	c6.4-21.2,9.5-40,9.5-56.7c0-17.9-3-31.4-8.9-40.6c-6-9.2-14.1-13.8-24.3-13.9c-10.9,0-19.6,5.1-26.2,15.3
	c-6.6,10.2-9.9,24.6-9.9,43.3c0,38.2,10.8,68.3,32.3,90.4c21.5,22.1,48.9,33.1,82.2,33.1C455.9,258.9,468.3,257.5,480.5,254.6
	L480.5,254.6z"/>
</svg>
