<?xml version="1.0" encoding="utf-8"?>
<!-- Generator: Adobe Illustrator 19.1.0, SVG Export Plug-In . SVG Version: 6.00 Build 0)  -->
<svg version="1.1" id="Layer_1" xmlns="http://www.w3.org/2000/svg" xmlns:xlink="http://www.w3.org/1999/xlink" x="0px" y="0px"
	 width="512px" height="512px" viewBox="0 0 512 512" enable-background="new 0 0 512 512" xml:space="preserve">
<path fill="#444444" d="M314,355.4v60.3c0,12.8-3.7,19.1-11.2,19.1c-4.4,0-8.7-2-12.9-6.2v-86c4.2-4.2,8.5-6.2,12.9-6.2
	C310.3,336.3,314,342.6,314,355.4L314,355.4z M410.6,355.7v13.1h-25.7v-13.1c0-12.9,4.3-19.5,12.9-19.5S410.6,342.8,410.6,355.7
	L410.6,355.7z M134.6,293.5h30.6v-26.8H76v26.8h30v162.6h28.6L134.6,293.5L134.6,293.5z M216.9,456.1h25.4V314.9h-25.4v108
	c-5.7,8-11.2,12-16.3,12c-3.5,0-5.4-2-6-6c-0.2-0.5-0.3-3.9-0.3-10V314.9h-25.4v111.7c0,9.3,0.7,16.3,2.3,20.9
	c2.3,7.1,7.8,10.5,16.6,10.5c9.1,0,18.8-5.8,29.2-17.4V456.1z M339.5,413.8v-56.3c0-13.9-0.8-23.3-2.6-28.3c-3.3-10.6-10-16-20.3-16
	c-9.5,0-18.4,5.1-26.6,15.5v-62h-25.4v189.4H290v-13.8c8.6,10.4,17.4,15.8,26.6,15.8c10.2,0,17.1-5.2,20.3-15.8
	C338.5,437.2,339.5,427.7,339.5,413.8L339.5,413.8z M436,410.8v-3.7h-26c0,9.7-0.2,15.6-0.6,17.4c-1.3,6.9-5.1,10.2-11.4,10.2
	c-8.7,0-13.1-6.6-13.1-19.8v-24.9H436v-29.5c0-15.1-2.6-26.1-7.7-33.2c-7.5-9.7-17.5-14.5-30.3-14.5c-12.9,0-23.1,4.8-30.6,14.5
	c-5.3,7.1-8,18.1-8,33.2v49.5c0,15.1,2.8,26.1,8.3,33.2c7.5,9.7,17.7,14.5,30.8,14.5c13.7,0,24.1-5,30.8-15.2
	c3.5-5.1,5.4-10.2,6-15.5C435.8,425.7,436,420.1,436,410.8L436,410.8z M262.2,150V90c0-13.1-4.1-19.8-12.3-19.8
	c-8.2,0-12.3,6.6-12.3,19.8v60c0,13.3,4.1,20,12.3,20C258.2,170,262.2,163.3,262.2,150z M467.8,364.6c0,44.5-2.5,77.9-7.5,99.9
	c-2.7,11.3-8.2,20.7-16.6,28.3c-8.4,7.6-18.1,12-29.2,13.1c-35,4-87.9,6-158.5,6s-123.5-2-158.6-6c-11.1-1.1-20.8-5.5-29.3-13.1
	c-8.5-7.6-13.9-17-16.4-28.3c-4.9-21.3-7.5-54.7-7.5-99.9c0-44.5,2.5-77.9,7.5-99.9c2.7-11.3,8.2-20.7,16.6-28.3
	c8.4-7.6,18.2-12.1,29.5-13.4c34.9-3.8,87.7-5.7,158.3-5.7s123.5,1.9,158.6,5.7c11.1,1.3,20.8,5.8,29.3,13.4
	c8.5,7.6,13.9,17,16.4,28.3C465.2,285.9,467.8,319.3,467.8,364.6z M182.6,0h29.2l-34.6,114v77.4h-28.6V114
	c-2.7-14.1-8.5-34.3-17.4-60.5C124.1,33.8,118,16,112.6,0H143l20.3,75.2L182.6,0z M288.3,95.1v50c0,15.5-2.7,26.6-8,33.7
	c-7.1,9.7-17.1,14.5-30.3,14.5c-12.8,0-22.7-4.8-30-14.5c-5.3-7.3-8-18.4-8-33.7v-50c0-15.3,2.7-26.4,8-33.4
	c7.3-9.7,17.2-14.5,30-14.5c13.1,0,23.2,4.8,30.3,14.5C285.6,68.8,288.3,80,288.3,95.1z M384,48.8v142.5h-26v-15.8
	c-10.1,11.8-19.9,17.7-29.5,17.7c-8.7,0-14.3-3.5-16.9-10.5c-1.5-4.6-2.3-11.7-2.3-21.4V48.8h26v104.9c0,6.2,0.1,9.6,0.3,10
	c0.5,4.2,2.6,6.2,6,6.2c5.1,0,10.5-4.1,16.3-12.3v-109L384,48.8L384,48.8z"/>
</svg>
