<?xml version="1.0" encoding="utf-8"?>
<!-- Generator: Adobe Illustrator 19.1.0, SVG Export Plug-In . SVG Version: 6.00 Build 0)  -->
<svg version="1.1" id="Layer_1" xmlns="http://www.w3.org/2000/svg" xmlns:xlink="http://www.w3.org/1999/xlink" x="0px" y="0px"
	 width="512px" height="512px" viewBox="0 0 512 512" enable-background="new 0 0 512 512" xml:space="preserve">
<path fill="#444444" d="M365.7,256c0-7-2.9-12.2-8.6-15.4l-146.2-91.4c-5.9-3.8-12.1-4-18.6-0.6c-6.3,3.4-9.4,8.8-9.4,16v182.8
	c0,7.2,3.1,12.6,9.4,16c3.1,1.5,6,2.3,8.8,2.3c3.8,0,7-1,9.7-2.9l146.2-91.4C362.9,268.2,365.7,263,365.7,256z M512,256
	c0,18.3-0.1,32.5-0.3,42.8s-1,23.2-2.4,39c-1.4,15.7-3.6,29.8-6.4,42.1c-3.1,13.9-9.7,25.6-19.7,35.2c-10.1,9.5-21.9,15.1-35.5,16.6
	c-42.3,4.7-106.1,7.1-191.6,7.1s-149.4-2.4-191.7-7.2c-13.5-1.5-25.4-7-35.6-16.6c-10.2-9.5-16.8-21.3-19.9-35.2
	c-2.6-12.4-4.7-26.4-6.1-42.1c-1.5-15.7-2.3-28.7-2.4-39S0,274.2,0,255.9s0.1-32.5,0.3-42.8c0.2-10.3,1-23.2,2.4-39
	s3.5-29.8,6.4-42.1c3.1-13.9,9.7-25.6,19.7-35.2C39,87.3,50.8,81.8,64.3,80.2c42.3-4.6,106.2-7,191.7-7s149.4,2.4,191.7,7.2
	c13.5,1.5,25.4,7,35.6,16.6c10.2,9.5,16.8,21.3,19.9,35.2c2.6,12.4,4.7,26.4,6.1,42.1c1.5,15.7,2.3,28.7,2.4,39
	C511.9,223.5,511.9,237.7,512,256z"/>
</svg>
